<svg id="Layer_1" data-name="Layer 1" xmlns="http://www.w3.org/2000/svg" width="1in" height="0.8in" viewBox="0 0 72 58.1"><title>cat-icon</title><path d="M55.6,37.8a54.5,54.5,0,0,1,5.5,2.5h-.9L54,39a12.9,12.9,0,0,0-3.4-.1,13.5,13.5,0,0,1-4.9-.2h.6a26,26,0,0,0,3.9-.5,14.3,14.3,0,0,0,2.8-.7,19.1,19.1,0,0,0,3.8-1.8,8.9,8.9,0,0,0,3.1-2.7,3.8,3.8,0,0,0-.8-4.9,7.9,7.9,0,0,0-3.7-1.7l-2.1-.7h-.4a.6.6,0,0,1-.3-.8l.9-5.1c.1-1,.1-2.1.2-3.2a25,25,0,0,0-.2-4.7,21.2,21.2,0,0,0-1.4-5.5A6.1,6.1,0,0,0,51.6,5l-1.1.8L46.9,8.6a19.4,19.4,0,0,0-3.4,3.6l-2.8,3.2-.3.2,1.3-5.3-1.1.3-5.4,1a30.6,30.6,0,0,0-7.3,2.1A14.2,14.2,0,0,0,22.8,18h-.1c-.2-.6-.5-1.1-.7-1.7A15.2,15.2,0,0,0,19.8,13a7.1,7.1,0,0,0-3-2.1l-2.2-.7h-.1a9.1,9.1,0,0,1,.7,1.4l1.9,3.5a7.4,7.4,0,0,1,.8,3.9,7.1,7.1,0,0,1-1.3,3.1l-.4.5a.8.8,0,0,1-.4-.8,14.7,14.7,0,0,0-.7-4.1,42.2,42.2,0,0,0-1.8-4.5c-1.2-2.5-2.6-4.9-4-7.3l-.2-.3a18.8,18.8,0,0,1,5.8.1,15.2,15.2,0,0,1,4.6,1.8,8.8,8.8,0,0,0,6.1,1.3l4.3-.5h3.7l5.3.3h2a3.5,3.5,0,0,0,2.7-1,42.9,42.9,0,0,1,5.5-4l3.1-2.2a1.2,1.2,0,0,1,1.7.3c.3.5.5,1,.8,1.4s2.1,3.3,3,4.9a19.5,19.5,0,0,1,2.2,4.6,20.2,20.2,0,0,1,.4,2.6l.3,3.3a4.8,4.8,0,0,0,1.8,3.5l4.1,3.8a22.7,22.7,0,0,1,3.8,4.4,9.8,9.8,0,0,1,1.4,7.8,14.9,14.9,0,0,1-2.2,4.8l-1.3,1.6c-.2-.5-.3-1-.5-1.5a7,7,0,0,0-3.4-3.6A11,11,0,0,0,59,37.8H55.6Z" fill="#fff"/><path d="M55.5,52.9l-2.1-.2a9,9,0,0,0-4,.3l-5.5,1.7-5.3,1.5a22.1,22.1,0,0,1-7.2.7,18.8,18.8,0,0,1-5.8-1.3A13.9,13.9,0,0,1,20.3,52a13.6,13.6,0,0,1-3.1-6.9c-.1-.1-.1-.2-.1-.4l-2.9.5A27.5,27.5,0,0,0,7.9,48L4.6,49.9a.5.5,0,0,1-.4.2,15.9,15.9,0,0,1,2.9-2.9,14.9,14.9,0,0,1,5.8-2.8,22.1,22.1,0,0,1,3.7-.4c.5-.1.7.2,1,.6l2.8,4.9a9,9,0,0,0,1.9,2,14.6,14.6,0,0,0,3.7,2,12,12,0,0,0,3.3.6,14.6,14.6,0,0,0,6.2-1.2l4.8-1.8a51,51,0,0,1,6.3-2,8.5,8.5,0,0,1,7.1,1.5,5.2,5.2,0,0,1,1.6,1.7A3.9,3.9,0,0,0,55.5,52.9Z" fill="#fff"/><path d="M34.1,33.5,30.8,36a16.2,16.2,0,0,0,.4-1.9,8.4,8.4,0,0,1,1.3-2.7,5.6,5.6,0,0,1,2.8-2,8.2,8.2,0,0,1,3.8-.6A8.9,8.9,0,0,1,43,30a.9.9,0,0,1,.5,1.2,7.3,7.3,0,0,1-2.4,3.4,5.6,5.6,0,0,1-4.5,1.1,3.3,3.3,0,0,1-2.4-2C34.1,33.7,34.1,33.6,34.1,33.5Z" fill="#fff"/><path d="M28.4,42.4,26,44.7c-.2.1-.2.2-.1.4a4.6,4.6,0,0,0,2,1.9,5.5,5.5,0,0,0,2.8.4l2.3-.5h.2A9.1,9.1,0,0,1,30.9,49a3.5,3.5,0,0,1-3.3-.2,8.6,8.6,0,0,1-3.7-3.4A8.4,8.4,0,0,0,21.7,43l-1-.7h-.3a6.6,6.6,0,0,1,4.5-1.1,12.4,12.4,0,0,1,3.2,1.2Z" fill="#fff"/><path d="M22.7,35a6.7,6.7,0,0,1-4.2,0,4.6,4.6,0,0,1-2.2-1.7,2.1,2.1,0,0,0-.4-.6,2,2,0,0,1,.3-2.8,4,4,0,0,1,1.8-1,2.1,2.1,0,0,1,2.4.9A18.7,18.7,0,0,1,21.9,33,11.9,11.9,0,0,1,22.7,35Z" fill="#fff"/><path d="M15.7,42.5a26.4,26.4,0,0,0-7.9-.6A39.1,39.1,0,0,0,.1,43.6H0l1.2-.9a11,11,0,0,1,5-1.7,12.2,12.2,0,0,1,2.7-.1,13.6,13.6,0,0,1,6.6,1.5.1.1,0,0,1,.1.1C15.7,42.4,15.7,42.4,15.7,42.5Z" fill="#fff"/><path d="M58.4,45.9c-4.8-2-9.7-3.7-15.1-3.5a25.7,25.7,0,0,1,7.3-.3,12.6,12.6,0,0,1,5.4,2l1.6,1Z" fill="#fff"/></svg>