<svg xmlns="http://www.w3.org/2000/svg" width="96" height="76.8" viewBox="0 0 72 58.1"><path fill="#fff" d="M55.6 37.8a54.5 54.5 0 0 1 5.5 2.5h-.9L54 39a12.9 12.9 0 0 0-3.4-.1 13.5 13.5 0 0 1-4.9-.2h.6a26 26 0 0 0 3.9-.5 14.3 14.3 0 0 0 2.8-.7 19.1 19.1 0 0 0 3.8-1.8 8.9 8.9 0 0 0 3.1-2.7 3.8 3.8 0 0 0-.8-4.9 7.9 7.9 0 0 0-3.7-1.7l-2.1-.7h-.4a.6.6 0 0 1-.3-.8l.9-5.1c.1-1 .1-2.1.2-3.2a25 25 0 0 0-.2-4.7 21.2 21.2 0 0 0-1.4-5.5 6.1 6.1 0 0 0-.5-1.4l-1.1.8-3.6 2.8a19.4 19.4 0 0 0-3.4 3.6l-2.8 3.2-.3.2 1.3-5.3-1.1.3-5.4 1a30.6 30.6 0 0 0-7.3 2.1 14.2 14.2 0 0 0-5.1 4.3h-.1c-.2-.6-.5-1.1-.7-1.7a15.2 15.2 0 0 0-2.2-3.3 7.1 7.1 0 0 0-3-2.1l-2.2-.7h-.1a9.1 9.1 0 0 1 .7 1.4l1.9 3.5a7.4 7.4 0 0 1 .8 3.9 7.1 7.1 0 0 1-1.3 3.1l-.4.5a.8.8 0 0 1-.4-.8 14.7 14.7 0 0 0-.7-4.1 42.2 42.2 0 0 0-1.8-4.5c-1.2-2.5-2.6-4.9-4-7.3l-.2-.3a18.8 18.8 0 0 1 5.8.1 15.2 15.2 0 0 1 4.6 1.8 8.8 8.8 0 0 0 6.1 1.3l4.3-.5h3.7l5.3.3h2a3.5 3.5 0 0 0 2.7-1 42.9 42.9 0 0 1 5.5-4l3.1-2.2a1.2 1.2 0 0 1 1.7.3c.3.5.5 1 .8 1.4s2.1 3.3 3 4.9a19.5 19.5 0 0 1 2.2 4.6 20.2 20.2 0 0 1 .4 2.6l.3 3.3a4.8 4.8 0 0 0 1.8 3.5l4.1 3.8a22.7 22.7 0 0 1 3.8 4.4 9.8 9.8 0 0 1 1.4 7.8 14.9 14.9 0 0 1-2.2 4.8l-1.3 1.6c-.2-.5-.3-1-.5-1.5a7 7 0 0 0-3.4-3.6 11 11 0 0 0-5.3-1.5h-3.4zm-.1 15.1l-2.1-.2a9 9 0 0 0-4 .3l-5.5 1.7-5.3 1.5a22.1 22.1 0 0 1-7.2.7 18.8 18.8 0 0 1-5.8-1.3 13.9 13.9 0 0 1-5.3-3.6 13.6 13.6 0 0 1-3.1-6.9c-.1-.1-.1-.2-.1-.4l-2.9.5A27.5 27.5 0 0 0 7.9 48l-3.3 1.9a.5.5 0 0 1-.4.2 15.9 15.9 0 0 1 2.9-2.9 14.9 14.9 0 0 1 5.8-2.8 22.1 22.1 0 0 1 3.7-.4c.5-.1.7.2 1 .6l2.8 4.9a9 9 0 0 0 1.9 2 14.6 14.6 0 0 0 3.7 2 12 12 0 0 0 3.3.6 14.6 14.6 0 0 0 6.2-1.2l4.8-1.8a51 51 0 0 1 6.3-2 8.5 8.5 0 0 1 7.1 1.5 5.2 5.2 0 0 1 1.6 1.7 3.9 3.9 0 0 0 .2.6z"/><path fill="#fff" d="M34.1 33.5L30.8 36a16.2 16.2 0 0 0 .4-1.9 8.4 8.4 0 0 1 1.3-2.7 5.6 5.6 0 0 1 2.8-2 8.2 8.2 0 0 1 3.8-.6A8.9 8.9 0 0 1 43 30a.9.9 0 0 1 .5 1.2 7.3 7.3 0 0 1-2.4 3.4 5.6 5.6 0 0 1-4.5 1.1 3.3 3.3 0 0 1-2.4-2c-.1 0-.1-.1-.1-.2zm-5.7 8.9L26 44.7c-.2.1-.2.2-.1.4a4.6 4.6 0 0 0 2 1.9 5.5 5.5 0 0 0 2.8.4l2.3-.5h.2a9.1 9.1 0 0 1-2.3 2.1 3.5 3.5 0 0 1-3.3-.2 8.6 8.6 0 0 1-3.7-3.4 8.4 8.4 0 0 0-2.2-2.4l-1-.7h-.3a6.6 6.6 0 0 1 4.5-1.1 12.4 12.4 0 0 1 3.2 1.2zM22.7 35a6.7 6.7 0 0 1-4.2 0 4.6 4.6 0 0 1-2.2-1.7 2.1 2.1 0 0 0-.4-.6 2 2 0 0 1 .3-2.8 4 4 0 0 1 1.8-1 2.1 2.1 0 0 1 2.4.9 18.7 18.7 0 0 1 1.5 3.2 11.9 11.9 0 0 1 .8 2zm-7 7.5a26.4 26.4 0 0 0-7.9-.6 39.1 39.1 0 0 0-7.7 1.7H0l1.2-.9a11 11 0 0 1 5-1.7 12.2 12.2 0 0 1 2.7-.1 13.6 13.6 0 0 1 6.6 1.5.1.1 0 0 1 .1.1c.1-.1.1-.1.1 0zm42.7 3.4c-4.8-2-9.7-3.7-15.1-3.5a25.7 25.7 0 0 1 7.3-.3 12.6 12.6 0 0 1 5.4 2l1.6 1z"/></svg>