<svg id="Layer_1" data-name="Layer 1" xmlns="http://www.w3.org/2000/svg" width="2.4in" height="0.4in" viewBox="0 0 169.6 30.8"><title>logo</title><path d="M160.8,21a9.7,9.7,0,0,1,2.3,1.1h-.3l-2.7-.6a3.8,3.8,0,0,0-1.5,0h-1.8l1.6-.2a5,5,0,0,0,1.3-.3l1.6-.7a5,5,0,0,0,1.3-1.2,1.6,1.6,0,0,0-.3-2.1,4.8,4.8,0,0,0-1.6-.8l-.9-.2h-.2a.4.4,0,0,1-.1-.3c.1-.8.3-1.5.4-2.2a6.6,6.6,0,0,1,.1-1.4,12.7,12.7,0,0,0-.1-2,10.5,10.5,0,0,0-.6-2.4l-.2-.5-.5.3-1.5,1.2a7.5,7.5,0,0,0-1.5,1.6l-1.2,1.3h-.2l.6-2.2h-.5l-2.3.4a11.1,11.1,0,0,0-3.1.9,5.1,5.1,0,0,0-2.2,1.9h-.1l-.3-.7a6,6,0,0,0-.9-1.5,3.8,3.8,0,0,0-1.3-.9l-1-.3h0l.3.6a10.9,10.9,0,0,1,.8,1.5,3.5,3.5,0,0,1,.4,1.7,3.1,3.1,0,0,1-.6,1.3l-.2.3c-.1-.1-.1-.2-.1-.4a8.6,8.6,0,0,0-.3-1.7,11.9,11.9,0,0,0-.8-2,30.7,30.7,0,0,0-1.7-3.1h-.1a7,7,0,0,1,2.5,0,4.6,4.6,0,0,1,1.9.8,4.2,4.2,0,0,0,2.7.5l1.8-.2h4.8a1.5,1.5,0,0,0,1.1-.4A13.7,13.7,0,0,1,158,6.3l1.3-.9c.3-.2.6-.2.7.1l.4.6,1.3,2.1a8.8,8.8,0,0,1,.9,2,4.3,4.3,0,0,1,.2,1.1,7.1,7.1,0,0,1,.1,1.4,3,3,0,0,0,.8,1.6l1.8,1.6a7.4,7.4,0,0,1,1.6,1.9,3.9,3.9,0,0,1,.6,3.3,5.8,5.8,0,0,1-1,2.1l-.5.7c-.1-.2-.1-.5-.2-.7a2.8,2.8,0,0,0-1.5-1.5,4.5,4.5,0,0,0-2.3-.7h-1.4Z" fill="#fff"/><path d="M160.7,27.5h-.9a4.9,4.9,0,0,0-1.7.1l-2.3.8-2.3.6a8.2,8.2,0,0,1-3.1.3,10.1,10.1,0,0,1-2.5-.5,6.3,6.3,0,0,1-2.3-1.6,6.5,6.5,0,0,1-1.4-2.9V24l-1.2.2a8.3,8.3,0,0,0-2.7,1.2l-1.4.8h-.2a7.4,7.4,0,0,1,1.2-1.3,8.2,8.2,0,0,1,2.5-1.2H144c.2-.1.3,0,.4.2l1.2,2.1a2.6,2.6,0,0,0,.9.9l1.5.9,1.5.2a5.2,5.2,0,0,0,2.7-.5l2-.8,2.7-.8a3.5,3.5,0,0,1,3.1.6c.2.2.5.4.6.7A.4.4,0,0,1,160.7,27.5Z" fill="#fff"/><path d="M151.5,19.1l-1.4,1.1c.1-.3.1-.5.2-.8a6.1,6.1,0,0,1,.5-1.2,2.3,2.3,0,0,1,1.2-.8,5.1,5.1,0,0,1,1.7-.3,4.8,4.8,0,0,1,1.7.5c.2.2.3.3.2.6a3.3,3.3,0,0,1-1,1.4,2.9,2.9,0,0,1-2,.5,1.3,1.3,0,0,1-1-.9Z" fill="#fff"/><path d="M149.1,23l-1.1.9v.2a2,2,0,0,0,.9.9,2.5,2.5,0,0,0,1.2.1l1-.2h0a2.8,2.8,0,0,1-1,.9,1.2,1.2,0,0,1-1.4-.1,5.2,5.2,0,0,1-1.6-1.4,3.1,3.1,0,0,0-.9-1.1l-.4-.3h-.2a2.9,2.9,0,0,1,2-.5l1.4.5A.1.1,0,0,0,149.1,23Z" fill="#fff"/><path d="M146.6,19.8a3.7,3.7,0,0,1-1.8,0,1.8,1.8,0,0,1-.9-.8l-.2-.2c-.3-.4-.2-.8.2-1.2a1,1,0,0,1,.7-.4.7.7,0,0,1,1,.4,5.4,5.4,0,0,1,.7,1.3Z" fill="#fff"/><path d="M143.6,23a12.7,12.7,0,0,0-3.4-.2,13,13,0,0,0-3.3.7h0l.5-.3a4.2,4.2,0,0,1,2.1-.8h1.2a6.4,6.4,0,0,1,2.8.6Z" fill="#fff"/><path d="M162,24.5a14.7,14.7,0,0,0-6.5-1.5,8.6,8.6,0,0,1,3.2-.1,4.9,4.9,0,0,1,2.3.8l.6.5Z" fill="#fff"/><path d="M7.4,10.4A6.5,6.5,0,1,1,.9,16.9,6.5,6.5,0,0,1,7.4,10.4Zm0,11.7a5.2,5.2,0,0,0,0-10.4,5.2,5.2,0,0,0,0,10.4Z" fill="#fff"/><path d="M15.9,10.9a.3.3,0,0,1,.3-.3h.6a.3.3,0,0,1,.3.3V22.8c0,.2-.1.4-.3.4h-.6c-.2,0-.3-.2-.3-.4Z" fill="#fff"/><path d="M22.6,15.8a4.1,4.1,0,0,1,2,.5V10.9a.3.3,0,0,1,.3-.3h.6a.3.3,0,0,1,.3.3V22.8a.4.4,0,0,1-.3.4h-.4a.3.3,0,0,1-.3-.3v-.5a3.3,3.3,0,0,1-2.3,1c-1.8,0-3.2-1.8-3.2-3.8S20.5,15.8,22.6,15.8Zm0,6.4A2.3,2.3,0,0,0,24.5,21V17.4a3.7,3.7,0,0,0-1.7-.4,2.3,2.3,0,0,0-2.4,2.6A2.4,2.4,0,0,0,22.6,22.2Z" fill="#fff"/><path d="M30.5,11.8H27.4c-.2,0-.3-.2-.3-.4v-.5a.3.3,0,0,1,.3-.3H35c.2,0,.4.1.4.3v.5a.4.4,0,0,1-.4.4H31.9v11c0,.2-.1.4-.3.4h-.7a.4.4,0,0,1-.4-.4Z" fill="#fff"/><path d="M38.6,15.8a3.7,3.7,0,0,1,3.6,3.8,3.6,3.6,0,1,1-7.2,0A3.7,3.7,0,0,1,38.6,15.8Zm0,6.4A2.5,2.5,0,0,0,41,19.6,2.5,2.5,0,0,0,38.6,17a2.4,2.4,0,0,0-2.3,2.6A2.5,2.5,0,0,0,38.6,22.2Z" fill="#fff"/><path d="M43.5,16.4c0-.3,0-.4.3-.4h.6l.3.2L46,20.9h0L48.1,16c0-.1.1-.2.3-.2h.1l.3.2,2,4.9h0l1.3-4.7.3-.2H53c.2,0,.3.1.2.4l-1.9,6.8-.3.2h-.1c-.2,0-.3-.1-.3-.2l-2.2-5.4-2.2,5.4c0,.1-.1.2-.3.2h-.1l-.3-.2Z" fill="#fff"/><path d="M55.1,16.3a.3.3,0,0,1,.3-.3h.4c.1,0,.2,0,.3.2v.5a4.5,4.5,0,0,1,2.6-.9c2,0,2.7,1.4,2.7,3.2v3.8c0,.2-.1.4-.3.4h-.6c-.2,0-.3-.2-.3-.4V19c0-1.3-.6-2-1.6-2a3.7,3.7,0,0,0-2.4,1v4.8c0,.2-.1.4-.3.4h-.6a.4.4,0,0,1-.3-.4Z" fill="#fff"/><path d="M66.8,22.7l5.5-12.1.3-.2h.2c.2,0,.2.1.3.2l5.4,12.1a.3.3,0,0,1-.3.5h-.7c-.2,0-.3-.1-.3-.2l-1.3-3H69.5l-1.3,3-.3.2h-.8A.4.4,0,0,1,66.8,22.7Zm8.6-3.8L72.8,13h-.2L70,18.9Z" fill="#fff"/><path d="M82.9,15.8a3.5,3.5,0,0,1,1.9.5V10.9a.3.3,0,0,1,.3-.3h.6a.3.3,0,0,1,.3.3V22.8c0,.2-.1.4-.3.4h-.4l-.3-.3v-.5a3.3,3.3,0,0,1-2.2,1,3.7,3.7,0,0,1-3.3-3.8C79.4,17.4,80.7,15.8,82.9,15.8Zm-.1,6.4a2.5,2.5,0,0,0,2-1.2V17.4A4.5,4.5,0,0,0,83,17c-1.5,0-2.3,1.1-2.3,2.6S81.5,22.2,82.8,22.2Z" fill="#fff"/><path d="M91.7,15.8a3.7,3.7,0,0,1,3.6,3.8,3.6,3.6,0,1,1-7.2,0A3.7,3.7,0,0,1,91.7,15.8Zm0,6.4A2.5,2.5,0,0,0,94,19.6,2.4,2.4,0,0,0,91.7,17a2.5,2.5,0,0,0-2.4,2.6A2.5,2.5,0,0,0,91.7,22.2Z" fill="#fff"/><path d="M98.5,28.2c0,.2-.1.4-.3.4h-.6a.4.4,0,0,1-.3-.4V16.3a.3.3,0,0,1,.3-.3H98c.2,0,.2,0,.3.2v.3a3.4,3.4,0,0,1,2.1-.7,3.5,3.5,0,0,1,3.4,3.8,3.5,3.5,0,0,1-3.4,3.8,3.6,3.6,0,0,1-2-.6Zm1.8-6.1a2.4,2.4,0,0,0,2.4-2.5,2.5,2.5,0,0,0-2.3-2.7,2.3,2.3,0,0,0-1.8.9v3.7A2.8,2.8,0,0,0,100.3,22.1Z" fill="#fff"/><path d="M106.4,17.1h-.9c-.2,0-.3-.2-.3-.4v-.4a.3.3,0,0,1,.3-.3h.9V14a.4.4,0,0,1,.4-.4h.6l.3.3V16h2.1a.3.3,0,0,1,.3.3v.4c0,.2-.1.4-.3.4h-2.1v4.2c0,.7.2.8.6.8a2.8,2.8,0,0,0,1.3-.4c.3-.1.3,0,.4.1l.3.5c.1.2.1.3-.1.4a4.7,4.7,0,0,1-2.1.7c-1.5,0-1.7-.9-1.7-2Z" fill="#fff"/><path d="M111.9,11.8a.8.8,0,0,1,.8-.9.9.9,0,0,1,.9.9.8.8,0,0,1-.9.8A.7.7,0,0,1,111.9,11.8Zm.2,4.5c0-.2.2-.3.4-.3h.5c.2,0,.4.1.4.3v6.5a.4.4,0,0,1-.4.4h-.5a.4.4,0,0,1-.4-.4Z" fill="#fff"/><path d="M119,15.8a3.7,3.7,0,0,1,3.6,3.8,3.6,3.6,0,1,1-7.2,0A3.7,3.7,0,0,1,119,15.8Zm0,6.4a2.5,2.5,0,0,0,2.3-2.6A2.4,2.4,0,0,0,119,17a2.5,2.5,0,0,0-2.4,2.6A2.5,2.5,0,0,0,119,22.2Z" fill="#fff"/><path d="M124.6,16.3a.3.3,0,0,1,.3-.3h.4c.1,0,.2,0,.3.2v.5a4.5,4.5,0,0,1,2.6-.9c2,0,2.7,1.4,2.7,3.2v3.8c0,.2-.1.4-.3.4h-.6c-.2,0-.3-.2-.3-.4V19c0-1.3-.6-2-1.6-2a3.7,3.7,0,0,0-2.4,1v4.8c0,.2-.1.4-.3.4h-.6a.4.4,0,0,1-.3-.4Z" fill="#fff"/></svg>