<svg xmlns="http://www.w3.org/2000/svg" width="3in" height="38.4" viewBox="0 0 216 30.8"><path fill="#fff" d="M206.9 20.2l3 1.4h-.4l-3.5-.7h-1.9a7.5 7.5 0 0 1-2.6-.1h.3a15.2 15.2 0 0 0 2.1-.3l1.6-.4a10 10 0 0 0 2.1-1 4.1 4.1 0 0 0 1.7-1.5 2.1 2.1 0 0 0-.4-2.7 4 4 0 0 0-2.1-.9l-1.2-.4h-.2c-.1-.1-.2-.2-.1-.4s.3-1.9.4-2.8.1-1.2.2-1.8a22.6 22.6 0 0 0-.1-2.6 14.7 14.7 0 0 0-.8-3l-.3-.7-.6.4-2 1.6a18 18 0 0 0-1.9 2L198.7 8l-.2.2.7-3-.6.2-3 .5a18.5 18.5 0 0 0-4 1.2 7.2 7.2 0 0 0-2.8 2.4h-.1l-.4-.9a7.6 7.6 0 0 0-1.2-1.9 3.9 3.9 0 0 0-1.7-1.1l-1.2-.5a2.5 2.5 0 0 0 .4.7c.3.7.7 1.3 1 2a3.9 3.9 0 0 1 .4 2.1 3.1 3.1 0 0 1-.7 1.8l-.2.2c-.2-.1-.2-.2-.2-.4a9.3 9.3 0 0 0-.4-2.3 26 26 0 0 0-1-2.5c-.7-1.4-1.4-2.7-2.2-4s-.1-.1-.1-.2a11.5 11.5 0 0 1 3.2.1 6 6 0 0 1 2.5 1 5.8 5.8 0 0 0 3.4.7l2.4-.3h2.1l2.9.2h1.1a2.2 2.2 0 0 0 1.5-.6 17 17 0 0 1 3-2.3l1.8-1.2c.3-.2.6-.1.9.2s.3.5.4.8 1.2 1.8 1.7 2.7a11.5 11.5 0 0 1 1.2 2.5 7.7 7.7 0 0 1 .2 1.5c.1.6.1 1.2.2 1.8a2.8 2.8 0 0 0 1 2l2.3 2.1a16.4 16.4 0 0 1 2.1 2.4 5.4 5.4 0 0 1 .7 4.3 6.6 6.6 0 0 1-1.2 2.7l-.7.9-.3-.9a4.4 4.4 0 0 0-1.8-2 8.6 8.6 0 0 0-3-.9h-1.9zm0 8.4h-1.2a5.3 5.3 0 0 0-2.2.2l-3.1.9-2.9.9a13.3 13.3 0 0 1-4 .3 11.4 11.4 0 0 1-3.2-.7 7.2 7.2 0 0 1-2.9-2 7.9 7.9 0 0 1-1.8-3.8v-.2a7.6 7.6 0 0 0-1.6.3 13.7 13.7 0 0 0-3.5 1.5l-1.8 1h-.2a6.5 6.5 0 0 1 1.6-1.7 8.6 8.6 0 0 1 3.2-1.5l2-.2a.7.7 0 0 1 .6.3l1.5 2.7a3.8 3.8 0 0 0 1.1 1.1 8.2 8.2 0 0 0 2 1.2 10.8 10.8 0 0 0 1.9.3 8 8 0 0 0 3.4-.7l2.7-1 3.5-1.1a4.9 4.9 0 0 1 3.9.8 3.9 3.9 0 0 1 .8 1c.1.1.1.2.2.4z"/><path fill="#fff" d="M195 17.9l-1.8 1.3c.1-.3.1-.7.2-1a6.9 6.9 0 0 1 .7-1.5 2.6 2.6 0 0 1 1.6-1.1 3.7 3.7 0 0 1 2.1-.3 5.5 5.5 0 0 1 2.2.6.6.6 0 0 1 .2.7 4.1 4.1 0 0 1-1.3 1.9 3.7 3.7 0 0 1-2.5.6 2.4 2.4 0 0 1-1.3-1.1.1.1 0 0 1-.1-.1zm-3.2 4.9l-1.3 1.2a.2.2 0 0 0 0 .3 2.7 2.7 0 0 0 1.1 1 2.9 2.9 0 0 0 1.6.3l1.2-.3h.1a3.3 3.3 0 0 1-1.3 1.1 1.9 1.9 0 0 1-1.8 0 4.6 4.6 0 0 1-2-1.9 8.1 8.1 0 0 0-1.2-1.4l-.6-.3h-.2a3.7 3.7 0 0 1 2.5-.6 12.7 12.7 0 0 1 1.8.6zm-3.1-4.1a3.6 3.6 0 0 1-2.3 0 2.3 2.3 0 0 1-1.2-1c-.1-.1-.2-.1-.2-.3a1 1 0 0 1 .1-1.5 2.1 2.1 0 0 1 1-.6 1.3 1.3 0 0 1 1.3.5 15.1 15.1 0 0 1 .9 1.8c.1.3.3.7.4 1.1zm-3.9 4.1a16 16 0 0 0-4.4-.3 31.5 31.5 0 0 0-4.2.9h-.1l.7-.5a6.6 6.6 0 0 1 2.8-.9h1.4a6.8 6.8 0 0 1 3.7.9zm23.7 1.9a20.2 20.2 0 0 0-8.4-1.9 14.1 14.1 0 0 1 4.1-.2 9.1 9.1 0 0 1 3 1.1l.8.6zM9.5 6.6A8.4 8.4 0 1 1 1.2 15a8.3 8.3 0 0 1 8.3-8.4zm0 15.1a6.7 6.7 0 0 0 6.7-6.7 6.8 6.8 0 0 0-6.7-6.8A6.8 6.8 0 0 0 2.8 15a6.7 6.7 0 0 0 6.7 6.7zM20.4 7.3a.5.5 0 0 1 .5-.5h.7c.2 0 .4.3.4.5v15.3c0 .2-.2.5-.4.5h-.7a.5.5 0 0 1-.5-.5zm8.7 6.3a5.2 5.2 0 0 1 2.5.6V7.3c0-.2.2-.5.4-.5h.8c.2 0 .4.3.4.5v15.3c0 .2-.2.5-.4.5h-.5a.4.4 0 0 1-.4-.4l-.2-.6a4.1 4.1 0 0 1-2.8 1.2c-2.4 0-4.2-2.2-4.2-4.9s1.6-4.8 4.4-4.8zm-.1 8.2a3.3 3.3 0 0 0 2.6-1.5v-4.6a4.9 4.9 0 0 0-2.3-.6c-2 0-3 1.5-3 3.3s1.1 3.4 2.7 3.4zM39.3 8.4h-4a.5.5 0 0 1-.5-.4v-.7a.5.5 0 0 1 .5-.5h9.8c.3 0 .4.3.4.5V8a.4.4 0 0 1-.4.4h-4v14.2a.5.5 0 0 1-.5.5h-.8a.5.5 0 0 1-.5-.5zm10.4 5.2a4.7 4.7 0 0 1 4.6 4.8 4.6 4.6 0 1 1-9.2 0 4.7 4.7 0 0 1 4.6-4.8zm0 8.2a3.2 3.2 0 0 0 3-3.4 3 3 0 1 0-6 0 3.2 3.2 0 0 0 3 3.4zm6.3-7.5c-.1-.3 0-.5.4-.5h.7l.4.2 1.7 6.2 2.6-6.4.4-.2h.2a.5.5 0 0 1 .4.2l2.5 6.4h.1L67 14l.4-.2h.8c.3 0 .4.2.3.5L66 23.1l-.4.2h-.1l-.4-.2-2.9-7-2.7 7-.4.2H59a.5.5 0 0 1-.4-.2zm14.9-.1a.4.4 0 0 1 .4-.4h.5c.2 0 .3.1.4.3l.2.7a5.1 5.1 0 0 1 3.2-1.2c2.7 0 3.6 1.7 3.6 4.1v4.9c0 .2-.2.5-.4.5H78c-.2 0-.4-.3-.4-.5v-4.9c0-1.7-.8-2.6-2.1-2.6a4.8 4.8 0 0 0-3 1.3v6.2c0 .2-.2.5-.4.5h-.8c-.2 0-.4-.3-.4-.5zM86 22.5l7.1-15.6a.3.3 0 0 1 .3-.3h.3c.2 0 .3.1.4.3l7 15.6a.4.4 0 0 1-.4.6h-1a.3.3 0 0 1-.3-.3L97.6 19h-8.2l-1.7 3.8a.4.4 0 0 1-.4.3h-.9a.4.4 0 0 1-.4-.6zm11-5l-3.4-7.6h-.2l-3.3 7.6zm9.6-3.9a4.8 4.8 0 0 1 2.5.6V7.3a.5.5 0 0 1 .5-.5h.7c.2 0 .4.3.4.5v15.3c0 .2-.2.5-.4.5h-.5c-.2 0-.3-.2-.4-.4v-.6a4.2 4.2 0 0 1-2.9 1.2c-2.3 0-4.2-2.2-4.2-4.9s1.6-4.8 4.3-4.8zm0 8.2a3.2 3.2 0 0 0 2.5-1.5v-4.6a4.8 4.8 0 0 0-2.2-.6 3 3 0 0 0-3.1 3.3c0 1.8 1.1 3.4 2.8 3.4zm11.4-8.2a4.9 4.9 0 0 1 0 9.7 4.7 4.7 0 0 1-4.6-4.9 4.7 4.7 0 0 1 4.6-4.8zm0 8.2a3.2 3.2 0 0 0 3-3.4 3 3 0 1 0-6 0 3.2 3.2 0 0 0 3 3.4zm8.8 7.8a.4.4 0 0 1-.4.4h-.7a.5.5 0 0 1-.5-.4V14.2a.5.5 0 0 1 .5-.4h.5c.2 0 .2.1.3.3l.2.4a4.3 4.3 0 0 1 2.7-.9 4.6 4.6 0 0 1 4.4 4.8 4.6 4.6 0 0 1-4.5 4.9 4.3 4.3 0 0 1-2.5-.8zm2.3-7.9a3 3 0 0 0 3-3.3c0-1.8-1-3.4-2.9-3.4a3.2 3.2 0 0 0-2.4 1.2v4.7a4.1 4.1 0 0 0 2.3.8zm7.9-6.5h-1.2a.5.5 0 0 1-.5-.5v-.5a.5.5 0 0 1 .5-.4h1.2v-2.6a.4.4 0 0 1 .4-.4h.8a.5.5 0 0 1 .4.5v2.6h2.7a.4.4 0 0 1 .4.4v.5a.5.5 0 0 1-.4.5h-2.7v5.4c0 .9.2 1.1.7 1.1a3.8 3.8 0 0 0 1.7-.5c.4-.2.5 0 .6.1l.3.6c.2.3.1.4-.1.6a6.7 6.7 0 0 1-2.7.8c-1.9 0-2.1-1.1-2.1-2.6zm7-6.8a1.1 1.1 0 1 1 1.1 1.1 1.1 1.1 0 0 1-1.1-1.1zm.3 5.8a.4.4 0 0 1 .4-.4h.7a.5.5 0 0 1 .5.4v8.4a.5.5 0 0 1-.5.5h-.7c-.2 0-.4-.3-.4-.5zm8.8-.6a4.7 4.7 0 0 1 4.6 4.8 4.6 4.6 0 1 1-9.2 0 4.7 4.7 0 0 1 4.6-4.8zm0 8.2a3.2 3.2 0 0 0 3-3.4 3 3 0 1 0-6 0 3.2 3.2 0 0 0 3 3.4zm7.2-7.6c0-.2.3-.4.5-.4h.4c.2 0 .3.1.4.3l.2.7a5.1 5.1 0 0 1 3.2-1.2c2.7 0 3.6 1.7 3.6 4.1v4.9c0 .2-.2.5-.4.5h-.7a.5.5 0 0 1-.5-.5v-4.9c0-1.7-.8-2.6-2.1-2.6a4.8 4.8 0 0 0-3 1.3v6.2c0 .2-.2.5-.4.5h-.7a.6.6 0 0 1-.5-.5z"/></svg>